<?xml version="1.0" encoding="UTF-8"?>
<svg id="Camada_2" xmlns="http://www.w3.org/2000/svg" viewBox="0 0 835.32 803.7">
  <defs>
    <style>
      .cls-1 {
        fill: #484a99;
      }

      .cls-2, .cls-3, .cls-4, .cls-5, .cls-6 {
        stroke-miterlimit: 10;
      }

      .cls-2, .cls-3, .cls-4, .cls-6 {
        stroke: #454545;
      }

      .cls-2, .cls-4 {
        stroke-linecap: round;
      }

      .cls-2, .cls-4, .cls-6 {
        fill: none;
      }

      .cls-2, .cls-6 {
        stroke-width: 9.08px;
      }

      .cls-3 {
        stroke-width: 2.27px;
      }

      .cls-3, .cls-7, .cls-5 {
        fill: #454545;
      }

      .cls-4 {
        stroke-width: 6.81px;
      }

      .cls-8 {
        fill: #ebffa4;
      }

      .cls-5 {
        stroke: #f5f3e7;
        stroke-width: 4.54px;
      }

      .cls-9 {
        fill: #f5f3e7;
      }
    </style>
  </defs>
  <g id="Camada_2-2" data-name="Camada_2">
    <g>
      <g>
        <path class="cls-7" d="M433.13,211.61c-3.49,0-7.01-.41-10.48-1.23-16.47-3.93-29.41-16.68-33.51-33.1-2.7-10.73-14.66-66.1,14.25-103.15,14.84-19.01,37.32-29.47,63.35-29.47,13.05,0,26.82,2.5,42.11,7.6,14.34,4.81,25.34,16.45,29.36,31.04s.48,30.22-9.42,41.66l-61.29,70.95c-8.74,10.1-21.33,15.72-34.33,15.72l-.05-.02Z"/>
        <path class="cls-7" d="M408.74,210.79c-1.41,0-2.84-.07-4.24-.2-12.71-1.2-77.12-9.62-98.25-58.61-8.87-20.56-12.55-53.89,20.24-95.93,8.65-11.07,21.85-17.45,35.76-17.45,1.09,0,2.18.05,3.27.11,15.09,1.09,28.63,9.62,36.14,22.76l46.47,81.43c8.4,14.7,7.9,32.86-1.27,47.08-8.4,13.02-22.8,20.78-38.12,20.78v.02Z"/>
        <g>
          <path class="cls-7" d="M458.11,803.7c-47.49,0-97.98-12.64-150.23-37.62-4.49.18-8.96.27-13.34.27-78.6,0-130.42-28.18-160.03-51.82-17.97-14.34-30.04-28.75-36.98-38.3-15.29-21.01-17.4-32.45-17.4-41.66,0-16.54,9.01-31.79,23.51-39.75,6.83-3.77,14.36-5.63,21.87-5.63,7.92,0,15.81,2.06,22.87,6.17-.02-1.43-.09-2.95-.18-4.54-.77-12.84-1.16-24.66-1.16-36.12v-197.31c2.52-100.49,49.53-151.86,88.54-177.25,37.69-24.53,87.24-37.51,143.35-37.51,28.29,0,50.87,3.22,61.47,5.06,2.2-.07,4.88-.11,7.99-.11,28.75,0,84.95,4.15,138.45,31.92,49.62,25.75,110.5,79.53,118.85,189.35.09,1.13.14,2.29.14,3.45v216.71c0,1.41,0,1.88-.11,3.18-.14,3.18.25,7.22.88,10.44,1.91-.43,4.4-1.11,7.51-2.27,5.08-1.86,10.35-2.75,15.54-2.75,13.05,0,25.75,5.63,34.53,15.93,12.3,14.43,14.34,34.97,5.11,51.53-15,26.93-56.61,72.52-117.4,72.52h0c-7.96,0-15.95-.77-23.96-2.34-28.79,28.41-84.5,68.46-169.72,68.46h-.09ZM276.5,428.14c-1.2,10.6-2.18,23.44-2.18,37.39,0,36.55,6.67,86.61,38.46,117.49,21.51,20.9,53.93,32.11,96.34,33.26h.52c3.56.14,7.12.2,10.57.2h0c9.62,0,18.9-.54,27.59-1.63,76.01-9.44,114.52-63.58,114.52-160.92,0-6.67-.2-12.84-.52-18.29-7.69-4.79-14.57-10.3-20.58-16.52-6.51-6.72-11.44-13.68-15.18-20.49-29.25-2.45-51.76-10.89-68.73-20.97-.2,19.4-12.73,36.55-31.18,42.63-4.67,1.54-9.46,2.29-14.2,2.29-14.11,0-27.77-6.6-36.51-18.4-4.95-6.69-9.39-13.59-13.3-20.67-26.18,22.87-55.16,37.94-85.68,44.61h.05Z"/>
          <path class="cls-7" d="M416.84,707.15c-3.47,0-6.88-.05-10.23-.14-65.85-1.79-118.71-21.6-157.08-58.88-43.16-41.93-65.96-105.08-65.96-182.59,0-39.05,5.85-71.13,8.33-82.93.98-10.85,5.83-21.03,13.75-28.63,8.46-8.15,19.74-12.66,31.45-12.66.34,0,2.27.02,2.88.02,62.51,0,102.1-72.83,112.75-95.16,7.76-16.27,23.98-25.87,40.98-25.87,5.9,0,11.87,1.16,17.63,3.58.66.27,1.32.57,1.97.88,6.92-4.13,14.86-6.42,23.01-6.42,3.31,0,6.67.39,10.03,1.18,20.28,4.81,34.65,22.08,34.87,42.88.27,2.63,2.45,19.26,14.34,31.04,10.17,10.07,26.32,15.18,48.06,15.18,4.06,0,8.35-.18,12.75-.54,1.25-.09,2.47-.16,3.72-.16,12.37,0,24.26,5.06,32.85,14.07,8.4,8.83,12.87,20.6,12.5,32.65.14.29.43.75,1.02,1.36,1.34,1.38,4.77,4.11,12.43,6.69,16.18,5.42,27.95,19.49,30.45,36.37,1.13,7.62,3.77,28.23,3.77,54.86,0,38.48-5.58,94.78-32.22,144.42-32.49,60.58-88.47,97.43-161.85,106.55-.41.05-.79.09-1.2.14-14.16,1.38-27.95,2.09-41,2.09h0Z"/>
          <path class="cls-7" d="M420.24,707.27c-4.63,0-9.37-.09-14.11-.27-24.96-.98-44.43-21.92-43.59-46.88.82-24.53,20.97-43.86,45.33-43.86h1.32c2.52.07,5.06.11,7.67.11,10.14,0,20.97-.54,32.2-1.66,1.5-.14,2.97-.23,4.45-.23,22.85,0,42.48,17.2,45.04,40.37,2.75,24.66-14.84,46.97-39.48,50.05-12.39,1.54-25.46,2.34-38.85,2.34l.02.02Z"/>
          <path class="cls-7" d="M393.67,311.1c-5.92,0-11.93-1.16-17.7-3.61-22.35-9.48-33.26-34.87-24.8-57.61,3.68-9.87,7.12-16.02,8.1-17.68,8.42-14.32,23.53-22.39,39.16-22.39,6.72,0,13.52,1.5,19.92,4.63,21.31,10.44,30.99,35.53,22.19,57.56-.52,1.32-2.5,6.15-5.92,13.3-7.76,16.25-23.98,25.82-40.96,25.82v-.02Z"/>
        </g>
        <g>
          <path class="cls-7" d="M586.58,585.45c-60.33,0-109.43-44.77-109.43-99.77s49.08-99.77,109.43-99.77,109.43,44.77,109.43,99.77-49.08,99.77-109.43,99.77h0Z"/>
          <path class="cls-7" d="M259.78,585.45c-60.33,0-109.43-44.77-109.43-99.77s49.08-99.77,109.43-99.77,109.43,44.77,109.43,99.77-49.08,99.77-109.43,99.77h0Z"/>
        </g>
        <path class="cls-7" d="M369.94,589.62c-10.55,0-21.15-3.65-29.75-11.12-18.92-16.45-43.02-40.82-43.41-68.73-2.25-43.13,39.12-75.97,52.19-85.22l52.41,74.11.18-.14c-2.43,1.75-5.11,3.99-7.53,6.29,1.63,1.54,3.52,3.27,5.72,5.17,18.92,16.45,20.92,45.11,4.49,64.03-8.96,10.32-21.58,15.61-34.26,15.61h-.05ZM387,515.88v.05-.05ZM387.03,515.83v.02-.02ZM387.03,515.77v.02-.02Z"/>
        <path class="cls-7" d="M414.89,569.74c-5.88,0-11.84-1.13-17.58-3.56,18.06,7.6,35.33-3.36,38.41-9.51.32-.68.43-1.16.43-1.16l-85.7-29.88c3.27-9.37,13.41-32.29,36.96-42.77,14.39-6.4,30.43-6.51,45.11-.34,23.1,9.73,33.94,36.33,24.21,59.42-7.31,17.36-24.14,27.8-41.84,27.8h0Z"/>
        <path class="cls-7" d="M391.77,653.7c-8.21,0-16.13-1.27-23.78-3.83-24.07-8.01-37.8-26.98-42.61-42.04-7.62-23.87,5.56-49.42,29.43-57.02,15.79-5.04,32.29-1,43.86,9.23,4.11-1.95,9.92-5.26,17.65-10.76,20.42-14.54,48.74-9.78,63.28,10.62,14.54,20.42,9.78,48.74-10.62,63.28-28.63,20.4-54.14,30.52-77.24,30.52h.02Z"/>
        <g>
          <path class="cls-7" d="M586.58,515.83c-9.01,0-17.9-2.68-25.5-7.85-11.1-7.53-18.29-19.6-19.65-32.97l-3.29-32.49c-2.5-24.57,15.13-46.63,39.66-49.62l206.64-25.19c1.86-.23,3.7-.34,5.54-.34,21.33,0,40.14,15.02,44.45,36.42,4.67,23.23-9.3,46.15-32.11,52.62l-203.35,57.7c-4.06,1.16-8.24,1.72-12.39,1.72h0Z"/>
          <path class="cls-7" d="M590.21,505.87c-2.84,0-5.74-.27-8.62-.82l-122.34-23.57c-24.55-4.72-40.64-28.41-36.01-52.98,8.76-46.47,52.32-80.19,103.58-80.19,5.01,0,10.12.32,15.13.98,58.93,7.65,101.15,57.97,94.12,112.22-.05.39-.27,1.82-.32,2.13-.39,2.54-.88,5.08-1.5,7.58-5.04,20.65-23.53,34.62-44.04,34.62v.02Z"/>
          <path class="cls-7" d="M543.38,522.96c-44.15,0-80.07-32.61-80.07-72.68s35.92-72.65,80.07-72.65,80.07,32.61,80.07,72.65-35.92,72.68-80.07,72.68Z"/>
          <path class="cls-7" d="M586.61,574.42c-11.16,0-22.24-4.11-30.88-12.12-6.44-5.92-16.56-12.77-20.99-14.27-20.38-2.25-36.78-17.93-39.87-38.3-3.15-20.78,8.4-41.02,27.89-48.9l32.17-12.98c5.45-2.2,11.21-3.29,16.97-3.29,6.22,0,12.43,1.27,18.24,3.83,11.19,4.92,19.92,14.14,24.23,25.59l14.68,39.09c7.42,19.74.27,41.98-17.24,53.68-7.69,5.13-16.47,7.67-25.21,7.67v-.02Z"/>
        </g>
        <g>
          <path class="cls-7" d="M268.45,490.92c-6.29,0-12.62-1.32-18.58-3.99-16.97-7.62-27.57-24.85-26.73-43.43,1.09-24.44,16.36-46.45,38.87-56.02,3.93-1.68,7.96-2.75,11.98-3.27,10.3-3.04,21.6-2.38,31.79,2.31,17.04,7.83,27.5,25.34,26.32,44.06-.61,9.67-2.86,19.06-6.72,27.95-6.38,14.7-19.85,24.66-35.19,26.86-6.69,3.65-14.16,5.54-21.71,5.54l-.02-.02Z"/>
          <path class="cls-7" d="M246.46,514.56c-4.11,0-8.24-.57-12.25-1.68l-201.08-56.41c-22.85-6.42-36.89-29.34-32.24-52.6,4.29-21.42,23.1-36.49,44.45-36.49,1.84,0,3.68.11,5.54.34l206.64,25.19c12.39,1.52,23.6,8.03,30.99,18.06s10.37,22.67,8.19,34.94l-5.56,31.22c-2.25,12.59-9.71,23.67-20.56,30.47-7.31,4.58-15.68,6.94-24.12,6.94h0Z"/>
          <g>
            <path class="cls-7" d="M245.42,506.98c-9.14,0-18.15-2.77-25.8-8.03-9.6-6.63-16.25-16.68-18.63-28.04-.54-2.27-1-4.58-1.36-6.9-.14-.75-.29-1.79-.43-3.02-6.67-54.05,35.46-104.08,94.16-111.68,5.04-.66,10.14-.98,15.18-.98,51.48,0,95.07,33.94,103.65,80.73,4.47,24.37-11.46,47.83-35.76,52.69l-122.16,24.37c-2.95.59-5.92.88-8.87.88l.02-.02Z"/>
            <path class="cls-7" d="M303.71,547.05c-48.74,0-90.74-30.4-102.2-73.92-3.18-12.09-1.23-24.98,5.4-35.58,6.63-10.62,17.33-18.02,29.61-20.47l122.16-24.37c2.95-.59,5.92-.88,8.87-.88,8.96,0,17.79,2.65,25.32,7.71,10.03,6.74,16.95,17.22,19.24,29.09.27,1.45.59,3.18.84,5.22.02.23.07.45.09.68.07.52.14,1.04.18,1.57,5.63,54.07-35.83,102.35-94.39,109.93-5.04.66-10.12.98-15.16.98h0l.02.05Z"/>
          </g>
          <path class="cls-7" d="M316.82,522.96c-44.15,0-80.07-32.61-80.07-72.68s35.92-72.65,80.07-72.65,80.07,32.61,80.07,72.65-35.92,72.68-80.07,72.68Z"/>
          <path class="cls-7" d="M248.71,574.42c-8.15,0-16.34-2.18-23.69-6.69-18.56-11.37-26.43-34.31-18.76-54.66l14.68-39.09c4.38-11.66,13.36-21.01,24.82-25.84,5.65-2.38,11.64-3.56,17.65-3.56s12.39,1.27,18.2,3.81l28.7,12.55c19.04,8.33,30,28.52,26.57,49.03-3.31,19.9-19.31,35.12-39.19,37.57-4.11,1.79-12.05,8.37-15.45,12.09-8.85,9.71-21.12,14.79-33.54,14.79h0Z"/>
        </g>
      </g>
      <g>
        <path class="cls-8" d="M433.13,173.01c-3.49,0-7.01-.41-10.48-1.23-16.47-3.93-29.41-16.68-33.51-33.1-2.7-10.73-14.66-66.1,14.25-103.15,14.84-19.01,37.32-29.47,63.35-29.47,13.05,0,26.82,2.5,42.11,7.6,14.34,4.81,25.34,16.45,29.36,31.04s.48,30.22-9.42,41.66l-61.29,70.95c-8.74,10.1-21.33,15.72-34.33,15.72l-.05-.02Z"/>
        <path class="cls-8" d="M408.74,172.19c-1.41,0-2.84-.07-4.24-.2-12.71-1.2-77.12-9.62-98.25-58.61-8.87-20.56-12.55-53.89,20.24-95.93,8.65-11.07,21.85-17.45,35.76-17.45,1.09,0,2.18.05,3.27.11,15.09,1.09,28.63,9.62,36.14,22.76l46.47,81.43c8.4,14.7,7.9,32.86-1.27,47.1-8.4,13.02-22.8,20.78-38.12,20.78h0Z"/>
        <g>
          <path class="cls-8" d="M458.09,765.1c-47.49,0-97.95-12.64-150.21-37.6-4.47.18-8.92.27-13.3.27-78.62,0-130.44-28.18-160.08-51.82-17.97-14.34-30.04-28.75-37.01-38.3-15.29-21.01-17.4-32.45-17.4-41.66,0-16.54,9.01-31.79,23.51-39.75,6.83-3.77,14.36-5.63,21.87-5.63,7.92,0,15.81,2.06,22.87,6.17-.02-1.43-.09-2.95-.18-4.54-.77-12.82-1.16-24.64-1.16-36.15v-197.27c2.5-100.52,49.53-151.89,88.54-177.28,37.69-24.53,87.27-37.51,143.38-37.51,28.27,0,50.85,3.22,61.42,5.06,2.18-.07,4.86-.11,7.94-.11,28.75,0,84.95,4.15,138.43,31.92,49.62,25.78,110.55,79.53,118.9,189.37.09,1.13.14,2.29.14,3.45v216.71c0,1.41,0,1.88-.11,3.18-.14,3.18.25,7.19.88,10.39,1.91-.43,4.4-1.13,7.51-2.27,5.08-1.86,10.35-2.75,15.54-2.75,13.05,0,25.75,5.63,34.53,15.93,12.3,14.43,14.34,34.97,5.11,51.53-15,26.93-56.63,72.52-117.47,72.54-7.94,0-15.95-.77-23.94-2.34-28.79,28.39-84.5,68.43-169.7,68.46h-.02v-.02ZM276.5,389.54c-1.2,10.6-2.18,23.44-2.18,37.42,0,35.46,6.29,84.25,36.28,115.29,21.58,22.3,54.73,34.24,98.52,35.42h.61c3.56.14,7.15.23,10.62.23,9.48,0,18.74-.54,27.55-1.63,75.9-9.44,114.43-63.58,114.43-160.92,0-6.67-.2-12.82-.52-18.27-7.65-4.76-14.5-10.23-20.51-16.4-6.53-6.76-11.5-13.77-15.25-20.58-29.27-2.45-51.78-10.91-68.75-21.01-.23,19.4-12.77,36.58-31.24,42.63-4.65,1.52-9.44,2.27-14.16,2.27-14.09,0-27.73-6.58-36.44-18.33-4.99-6.74-9.44-13.64-13.34-20.65-26.16,22.83-55.11,37.87-85.61,44.54h0Z"/>
          <path class="cls-8" d="M417.07,668.54c-3.54,0-7.01-.05-10.44-.14-68.32-1.86-122.57-23.08-161.26-63.06-40.43-41.84-61.81-103.51-61.81-178.39,0-39,5.85-71.09,8.33-82.91.95-10.87,5.81-21.08,13.73-28.7,8.46-8.15,19.74-12.68,31.47-12.68h2.93c62.47,0,102.06-72.81,112.72-95.14,7.76-16.25,23.98-25.84,40.98-25.84,5.9,0,11.87,1.16,17.63,3.58.66.27,1.29.57,1.93.86,6.92-4.13,14.86-6.42,23.03-6.42,3.31,0,6.67.39,9.98,1.16,20.28,4.81,34.67,22.03,34.9,42.84.27,2.63,2.47,19.29,14.41,31.13,10.17,10.05,26.32,15.16,48.06,15.16,4.06,0,8.35-.18,12.73-.54,1.25-.09,2.47-.16,3.72-.16,12.3,0,24.14,5.01,32.74,13.95,8.46,8.83,12.98,20.67,12.62,32.79.14.29.43.75,1.02,1.38,1.27,1.32,4.74,4.08,12.43,6.65,16.18,5.42,27.95,19.49,30.45,36.37,1.13,7.62,3.74,28.25,3.74,54.82,0,38.48-5.58,94.78-32.22,144.42-32.49,60.6-88.47,97.45-161.85,106.57-.41.05-.79.09-1.2.14-13.98,1.36-27.7,2.04-40.8,2.04l.02.11Z"/>
          <path class="cls-8" d="M420.38,668.67c-4.7,0-9.53-.09-14.32-.29-24.94-1.02-44.36-21.96-43.5-46.9.84-24.51,20.97-43.81,45.33-43.81h1.29c2.59.07,5.22.11,7.87.11,10.17,0,20.94-.54,32.02-1.63,1.5-.14,2.97-.2,4.45-.2,22.87,0,42.5,17.22,45.06,40.41,2.72,24.69-14.93,46.97-39.57,50.01-12.46,1.52-25.44,2.29-38.6,2.29l-.05.02Z"/>
          <path class="cls-8" d="M393.67,272.51c-5.92,0-11.96-1.16-17.74-3.63-22.33-9.51-33.24-34.87-24.75-57.61,3.7-9.94,7.17-16.09,8.15-17.74,8.42-14.27,23.53-22.33,39.12-22.33,6.74,0,13.57,1.5,19.99,4.65,21.28,10.46,30.93,35.58,22.1,57.61-.88,2.2-2.81,6.83-5.92,13.3-7.78,16.2-23.98,25.75-40.93,25.75h0Z"/>
        </g>
        <g>
          <path class="cls-8" d="M586.58,546.85c-60.33,0-109.43-44.77-109.43-99.77s49.08-99.77,109.43-99.77,109.43,44.77,109.43,99.77-49.08,99.77-109.43,99.77Z"/>
          <path class="cls-8" d="M259.78,546.85c-60.33,0-109.43-44.77-109.43-99.77s49.08-99.77,109.43-99.77,109.43,44.77,109.43,99.77-49.08,99.77-109.43,99.77Z"/>
        </g>
        <path class="cls-8" d="M369.94,551.03c-10.55,0-21.15-3.65-29.75-11.12-18.92-16.45-43.02-40.82-43.41-68.73-2.25-43.13,39.12-75.97,52.19-85.22l52.41,74.11.18-.14c-2.43,1.75-5.11,3.99-7.53,6.29,1.63,1.54,3.52,3.27,5.72,5.17,18.92,16.45,20.92,45.11,4.49,64.03-8.96,10.32-21.58,15.61-34.26,15.61h-.05ZM387,477.28v.05-.05ZM387.03,477.24v.02-.02ZM387.03,477.19v.02-.02Z"/>
        <path class="cls-8" d="M414.89,531.15c-5.88,0-11.84-1.13-17.58-3.56,18.06,7.6,35.33-3.36,38.41-9.51.32-.68.43-1.16.43-1.16l-85.7-29.88c3.27-9.37,13.41-32.29,36.96-42.77,14.39-6.4,30.43-6.51,45.11-.34,23.1,9.73,33.94,36.33,24.21,59.42-7.31,17.36-24.14,27.8-41.84,27.8h0Z"/>
        <path class="cls-8" d="M391.77,615.1c-8.21,0-16.13-1.27-23.78-3.83-24.07-8.01-37.8-26.98-42.61-42.04-7.62-23.87,5.56-49.42,29.43-57.02,15.79-5.04,32.29-1,43.86,9.23,4.11-1.95,9.92-5.26,17.65-10.76,20.42-14.54,48.74-9.78,63.28,10.62,14.54,20.42,9.78,48.74-10.62,63.28-28.63,20.4-54.14,30.52-77.24,30.52h.02Z"/>
        <g>
          <path class="cls-8" d="M586.58,477.24c-9.01,0-17.9-2.68-25.5-7.85-11.1-7.53-18.29-19.6-19.65-32.97l-3.29-32.49c-2.5-24.57,15.13-46.63,39.66-49.62l206.64-25.19c1.86-.23,3.7-.34,5.54-.34,21.33,0,40.14,15.02,44.45,36.42,4.67,23.23-9.3,46.15-32.11,52.62l-203.35,57.7c-4.06,1.16-8.24,1.72-12.39,1.72h0Z"/>
          <path class="cls-8" d="M590.21,467.28c-2.84,0-5.74-.27-8.62-.82l-122.37-23.57c-24.57-4.74-40.68-28.48-35.99-53.07,8.87-46.4,52.41-80.05,103.58-80.05,5.01,0,10.12.32,15.13.98,58.93,7.65,101.13,58,94.12,112.22-.07.48-.14.93-.2,1.41-.05.25-.07.5-.11.75-.39,2.5-.86,5.04-1.47,7.51-5.04,20.65-23.53,34.65-44.04,34.65h-.02Z"/>
          <path class="cls-8" d="M543.38,484.36c-44.15,0-80.07-32.61-80.07-72.68s35.92-72.65,80.07-72.65,80.07,32.61,80.07,72.65-35.92,72.68-80.07,72.68Z"/>
          <path class="cls-8" d="M586.61,535.82c-11.16,0-22.24-4.11-30.88-12.12-6.44-5.92-16.56-12.77-20.99-14.27-20.38-2.25-36.78-17.93-39.87-38.3-3.15-20.78,8.4-41.02,27.89-48.9l32.17-12.98c5.45-2.2,11.21-3.29,16.97-3.29,6.22,0,12.43,1.27,18.24,3.83,11.19,4.92,19.92,14.14,24.23,25.59l14.68,39.09c7.42,19.74.27,41.98-17.24,53.68-7.69,5.13-16.47,7.67-25.21,7.67v-.02Z"/>
        </g>
        <g>
          <path class="cls-8" d="M268.45,452.32c-6.29,0-12.62-1.32-18.61-3.99-16.97-7.62-27.57-24.85-26.73-43.43,1.09-24.44,16.36-46.45,38.87-56.02,3.93-1.68,7.96-2.75,11.98-3.27,10.3-3.04,21.6-2.38,31.79,2.31,17.04,7.83,27.5,25.34,26.32,44.06-.61,9.67-2.86,19.06-6.72,27.95-6.38,14.7-19.88,24.69-35.21,26.89-6.69,3.63-14.16,5.51-21.71,5.54l.02-.05Z"/>
          <path class="cls-8" d="M246.46,475.97c-4.11,0-8.24-.57-12.25-1.68l-201.08-56.41c-22.85-6.42-36.89-29.34-32.24-52.6,4.29-21.42,23.1-36.49,44.45-36.49,1.84,0,3.68.11,5.54.34l206.64,25.19c12.39,1.52,23.6,8.03,30.99,18.06s10.37,22.67,8.19,34.94l-5.56,31.22c-2.25,12.59-9.71,23.67-20.56,30.47-7.31,4.58-15.68,6.94-24.12,6.94h0Z"/>
          <g>
            <path class="cls-8" d="M245.37,468.37c-20.4,0-38.82-13.82-43.97-34.31-.14-.57-.29-1.23-.48-2-.59-2.43-1.07-4.9-1.45-7.51-.05-.34-.23-1.72-.27-2.06-6.72-54.07,35.42-104.15,94.16-111.75,5.01-.66,10.12-.98,15.18-.98,51.48,0,95.09,33.94,103.67,80.71,4.47,24.39-11.46,47.83-35.76,52.69l-122.16,24.37c-3,.59-5.97.88-8.92.88v-.05Z"/>
            <path class="cls-8" d="M303.73,508.48c-48.74,0-90.76-30.4-102.2-73.97-3.18-12.09-1.23-24.98,5.4-35.58,6.63-10.62,17.33-18.02,29.61-20.47l122.16-24.37c2.95-.59,5.92-.88,8.87-.88,8.96,0,17.79,2.65,25.34,7.74,10.03,6.76,16.95,17.24,19.24,29.11.25,1.34.48,2.77.68,4.17.25,1.63.39,3.04.45,3.93,5.26,53.75-36.08,101.7-94.39,109.3-5.06.66-10.17.98-15.18.98h0v.05Z"/>
          </g>
          <path class="cls-8" d="M316.82,484.36c-44.15,0-80.07-32.61-80.07-72.68s35.92-72.65,80.07-72.65,80.07,32.61,80.07,72.65-35.92,72.68-80.07,72.68Z"/>
          <path class="cls-8" d="M248.71,535.82c-8.15,0-16.34-2.18-23.69-6.69-18.56-11.37-26.43-34.31-18.76-54.66l14.68-39.09c4.38-11.66,13.36-21.01,24.82-25.84,5.65-2.38,11.64-3.56,17.65-3.56s12.39,1.27,18.2,3.81l28.7,12.55c19.04,8.33,29.97,28.52,26.57,49.03-3.31,19.9-19.33,35.12-39.19,37.57-4.11,1.79-12.05,8.37-15.43,12.09-8.85,9.71-21.12,14.79-33.54,14.79h-.02Z"/>
        </g>
      </g>
      <g>
        <path class="cls-5" d="M428.05,125.77s-25.07-99.88,61.29-70.95l-61.29,70.95Z"/>
        <path class="cls-5" d="M403.66,124.95s-102.51-9.62-46.47-81.43l46.47,81.43Z"/>
        <g>
          <path class="cls-7" d="M393.33,214.71c-.29.52-2.36,4.31-4.67,10.53-15.11,31.63-66.6,122.96-156.63,120.96v1.84s-8.15,33.49-8.15,77.03c0,48.33,10.01,109.03,52.21,150.03,27.09,26.3,67.39,44.45,126.77,46.08,16.5.64,31.61,0,45.52-1.75,134.19-16.68,154.31-135.96,154.31-205.98,0-23.6-2.29-41.59-3.27-48.17-14.29-4.79-24.03-11.32-30.63-18.17-12.64-13.05-13.89-27.18-13.89-32.27,0-1.29.09-1.97.09-1.97-48.83,3.99-78.46-9.8-96.45-27.64-26.48-26.23-27.75-61.22-27.75-61.22-23.92,47.29-23.92,112.75-23.92,112.75-19.49-26.32-25.19-51.66-25.19-72.36,0-16.7,3.72-30.4,6.97-39.16,2.97-6.17,4.49-10.07,4.67-10.53h0ZM655.29,548.55s-6.1,81.46,69.25,53.98c-1.04,1.86-43.02,74.38-116.4,40,0,0-91.71,141.09-295.99,37.17-143.45,10.71-191.78-81.91-191.78-85.59,66.96,42.41,69.61-19.88,68-46.47-.68-11.14-1.09-22.26-1.09-33.4v-196.13c5.4-216.35,244.78-165.27,244.78-165.27,0,0,208.41-15.84,223.22,179.05v216.69-.02Z"/>
          <path class="cls-9" d="M402.84,621.18c-59.38-1.61-99.68-19.79-126.77-46.08-42.2-41-52.21-101.7-52.21-150.03,0-43.54,8.12-77.03,8.12-77.03v-1.84c90.08,1.97,141.54-89.33,156.65-120.96-3.24,8.76-6.97,22.46-6.97,39.16,0,20.69,5.72,46.04,25.19,72.36,0,0,0-65.46,23.92-112.75,0,0,1.29,34.99,27.75,61.22,17.99,17.83,47.63,31.63,96.45,27.64,0,0-.09.7-.09,1.97,0,5.11,1.25,19.24,13.89,32.27,6.6,6.83,16.34,13.36,30.63,18.17.98,6.6,3.27,24.57,3.27,48.17,0,70.02-20.13,189.3-154.31,205.98-16.31,1.59-31.45,2.13-45.52,1.75h0Z"/>
          <path class="cls-9" d="M448.38,619.46c-13.93,1.75-29.04,2.38-45.52,1.75,14.07.39,29.22-.16,45.52-1.75Z"/>
          <path class="cls-9" d="M393.33,214.71c-.18.45-1.7,4.36-4.67,10.53,2.31-6.24,4.36-10.01,4.67-10.53Z"/>
        </g>
        <g>
          <ellipse class="cls-9" cx="581.52" cy="445.22" rx="64.05" ry="54.39"/>
          <ellipse class="cls-9" cx="254.7" cy="445.22" rx="64.05" ry="54.39"/>
        </g>
        <path class="cls-2" d="M370.12,421.15s-35.44,25.07-32.97,46.99c0,0-1.66,10.1,27.75,35.65"/>
        <path class="cls-4" d="M388.21,500.11s7.69-22.08,21.62-16.22"/>
        <path class="cls-2" d="M363.54,553.57s11.69,36.64,74.06-7.81"/>
        <g>
          <polygon class="cls-5" points="578.21 397.51 581.52 430 784.87 372.32 578.21 397.51"/>
          <g>
            <path class="cls-7" d="M531.04,353.87c34.17,4.42,58.74,31.9,54.93,61.4-.02.29-.09.64-.11.98-.18,1.29-.43,2.54-.77,3.79l-122.34-23.57c5.31-27.98,35.21-46.9,68.3-42.59Z"/>
            <g>
              <path class="cls-6" d="M462.74,396.46c5.31-27.98,35.21-46.9,68.3-42.59,34.17,4.42,58.74,31.9,54.93,61.4-.02.29-.09.64-.11.98-.18,1.29-.43,2.54-.77,3.79-6.35,26.86-35.6,44.79-67.87,40.57-33.72-4.36-58.11-31.18-55.09-60.22.07-.39.09-.79.16-1.18.11-.91.27-1.86.45-2.75h0Z"/>
              <polyline class="cls-6" points="462.72 396.46 462.74 396.46 585.09 420.04 586.58 420.31"/>
            </g>
          </g>
          <ellipse class="cls-3" cx="538.32" cy="409.85" rx="34.69" ry="27.27"/>
          <path class="cls-3" d="M534.67,462.47c20.74,1.72,46.85,26.12,46.85,26.12l-14.68-39.09-32.17,12.98Z"/>
        </g>
        <g>
          <path class="cls-1" d="M271.85,383.87c-8.3,3.61-13.66,12.34-14.14,21.22-.11,2.25,1.52,4.36,3.49,5.17,2.11.88,4.54.43,6.19-1.18,6.1-5.94,12.23-11.87,18.33-17.81l-9.69-4.02c-.07.91-.16,1.79-.27,2.68l.2-1.5c-.48,3.36-1.36,6.6-2.65,9.73l.57-1.36-.14.32,10.37,1.36c-.09-.43-.16-.86-.2-1.32l.2,1.5c-.25-1.97-.23-3.95.02-5.92l-.2,1.5c.2-1.43.54-2.81,1-4.17.95-2.81-1.09-6.33-3.97-6.99-3.15-.73-5.95.95-6.99,3.97-.75,2.18-1.57,4.31-2.45,6.44l.57-1.36c-.68,1.59-1.38,3.15-2.13,4.7l8.92-1.16c-.52-.57-1.02-1.11-1.54-1.68-2.02-2.2-6.01-2.2-8.03,0-2.16,2.34-2.16,5.7,0,8.03.52.57,1.02,1.11,1.54,1.68,2.34,2.54,7.33,2.06,8.92-1.16,1.97-4.06,3.7-8.24,5.15-12.5l-10.94-3.02c-1.59,4.67-1.7,9.6-.82,14.43.41,2.18,2.68,3.79,4.72,4.06,1.04.14,1.97,0,2.95-.39,1.02-.43,2.25-1.25,2.72-2.31,2.16-5.04,3.47-10.12,3.83-15.59.16-2.22-1.54-4.36-3.49-5.17-2.11-.88-4.54-.43-6.19,1.18-6.1,5.94-12.23,11.87-18.33,17.81l9.69,4.02c.02-.54.07-1.07.14-1.61l-.2,1.5c.23-1.59.66-3.13,1.29-4.63l-.57,1.36c.68-1.57,1.54-3.02,2.56-4.38l-.88,1.16c1-1.27,2.13-2.41,3.4-3.4l-1.16.88c1.2-.93,2.52-1.7,3.9-2.31,1.23-.52,2.27-2.18,2.61-3.38.36-1.36.2-3.18-.57-4.38s-1.95-2.27-3.38-2.61c-1.59-.36-2.9-.07-4.38.57h0l.02.05Z"/>
          <polygon class="cls-5" points="40.32 372.32 241.4 428.73 246.96 397.51 40.32 372.32"/>
          <g>
            <g>
              <path class="cls-7" d="M240.09,420.04c.09.36.18.73.25,1.09l122.16-24.37c-5.15-28.16-35.15-47.24-68.36-42.91-34.17,4.42-58.74,31.9-54.93,61.4.07.29.09.64.16.98.18,1.29.43,2.54.73,3.79v.02Z"/>
              <path class="cls-9" d="M362.5,396.78l-122.16,24.37c6.9,26.25,35.8,43.63,67.66,39.48,33.67-4.36,58.06-31.18,55.05-60.22-.02-.39-.09-.79-.16-1.18-.09-.82-.25-1.66-.39-2.45Z"/>
            </g>
            <path class="cls-6" d="M362.5,396.78c-5.15-28.16-35.15-47.24-68.36-42.91-34.17,4.42-58.74,31.9-54.93,61.4.07.29.09.64.16.98.18,1.29.43,2.54.73,3.79.09.36.18.73.25,1.09,6.9,26.25,35.8,43.63,67.66,39.48,33.67-4.36,58.06-31.18,55.05-60.22-.02-.39-.09-.79-.16-1.18-.09-.82-.25-1.66-.39-2.45v.02Z"/>
          </g>
          <ellipse class="cls-3" cx="311.76" cy="409.85" rx="34.69" ry="27.27"/>
          <path class="cls-3" d="M243.67,488.58s22.64-24.82,43.38-26.52l-28.7-12.55-14.68,39.09v-.02Z"/>
        </g>
      </g>
    </g>
  </g>
</svg>